<svg width="246" height="246" viewBox="0 0 246 246" fill="none" xmlns="http://www.w3.org/2000/svg">
<circle cx="123" cy="123" r="123" fill="#2222FF"/>
<rect width="246" height="246" rx="122" fill="url(#paint0_linear)"/>
<g filter="url(#filter0_d)">
<path d="M74.051 202.071H61.5L74.051 166.929H86.602L74.051 202.071Z" fill="#FAD3B2"/>
<path d="M85.7506 167.529L73.6282 201.471H62.3514L74.4739 167.529H85.7506Z" stroke="#F3A550" stroke-width="1.2"/>
</g>
<g filter="url(#filter1_d)">
<path d="M121.745 60.2449L91.6224 141.827H81.5816L115.469 48.949H161.908C232.194 48.949 200.816 160.653 161.908 160.653H129.275V149.357H160.653C183.305 149.357 214.622 60.2449 161.908 60.2449H121.745Z" fill="#FAD3B2"/>
<path d="M121.745 59.5949H121.292L121.135 60.0198L91.1695 141.177H82.5107L115.924 49.599H161.908C179.281 49.599 190.273 56.4849 196.475 66.7391C202.704 77.0375 204.161 90.832 202.212 104.711C200.264 118.581 194.925 132.445 187.674 142.827C180.404 153.234 171.318 160.003 161.908 160.003H129.925V150.007H160.653C163.697 150.007 166.807 148.514 169.789 146.027C172.778 143.534 175.695 139.995 178.367 135.781C183.712 127.353 188.132 116.135 190.182 104.918C192.23 93.7149 191.93 82.4141 187.719 73.881C185.608 69.6032 182.513 66.0214 178.248 63.5136C173.985 61.0073 168.59 59.5949 161.908 59.5949H121.745Z" stroke="#F3A550" stroke-width="1.3"/>
</g>
<g filter="url(#filter2_d)">
<path d="M183.245 104.173L179.48 111.704H158.143L161.908 104.173H183.245Z" fill="#FAD3B2"/>
<path d="M162.217 104.673H182.436L179.171 111.204H158.952L162.217 104.673Z" stroke="#F3A550"/>
</g>
<path d="M33.6796 171.377C33.436 170.998 33.1419 170.693 32.7974 170.464C32.4529 170.234 32.0856 170.08 31.6955 170.001C31.3004 169.925 30.8971 169.927 30.4856 170.005C30.066 170.081 29.6609 170.237 29.2701 170.474C28.8894 170.705 28.5706 170.987 28.3139 171.32C28.0491 171.652 27.8587 172.01 27.7428 172.395C27.6269 172.781 27.5909 173.179 27.6348 173.591C27.6787 174.002 27.8125 174.404 28.0362 174.796L33.6796 171.377ZM29.1969 176.712C29.4436 177.097 29.7392 177.404 30.0837 177.634C30.4252 177.858 30.7935 178.008 31.1885 178.084C31.5836 178.16 31.9894 178.157 32.406 178.076C32.8175 177.998 33.2136 177.843 33.5943 177.613C33.9851 177.376 34.3129 177.092 34.5777 176.76C34.8375 176.432 35.0253 176.075 35.1412 175.69C35.2521 175.308 35.2871 174.913 35.2463 174.506C35.2023 174.095 35.067 173.691 34.8404 173.294L29.1969 176.712ZM26.4806 175.738C26.091 175.05 25.8425 174.351 25.735 173.642C25.6276 172.934 25.6488 172.257 25.7988 171.611C25.9457 170.96 26.2099 170.362 26.5914 169.816C26.9728 169.27 27.4591 168.818 28.0502 168.46C28.6464 168.099 29.2773 167.874 29.9429 167.786C30.6035 167.701 31.2561 167.744 31.9007 167.915C32.5423 168.081 33.1522 168.376 33.7306 168.799C34.309 169.223 34.813 169.767 35.2427 170.431L36.5352 169.648L37.6959 171.564L36.4034 172.347C36.79 173.03 37.037 173.726 37.1445 174.435C37.2469 175.147 37.2272 175.827 37.0852 176.474C36.9383 177.125 36.6741 177.723 36.2927 178.269C35.9062 178.818 35.415 179.273 34.8188 179.634C34.2276 179.992 33.6018 180.214 32.9412 180.299C32.2806 180.384 31.6305 180.34 30.9909 180.166C30.3463 179.995 29.7348 179.697 29.1564 179.274C28.5781 178.85 28.073 178.311 27.6414 177.654L26.3714 178.424L25.2107 176.507L26.4806 175.738Z" fill="#F8A557"/>
<path d="M26.6168 159.785L23.386 162.917C23.2458 163.063 23.0746 163.226 22.8726 163.406C22.6706 163.585 22.4498 163.774 22.2103 163.97C22.5142 163.918 22.8031 163.876 23.0773 163.844C23.3461 163.814 23.5842 163.794 23.7918 163.785L28.2616 163.477L26.6168 159.785ZM29.3003 154.021L30.044 155.69C30.1274 155.877 30.1498 156.05 30.1113 156.208C30.0675 156.369 29.9891 156.51 29.8762 156.63L27.8949 158.552L30.0366 163.359L32.7902 163.171C32.9324 163.159 33.0817 163.192 33.2381 163.27C33.3946 163.347 33.5146 163.48 33.598 163.667L34.3453 165.344L20.7099 165.956L19.7266 163.749L29.3003 154.021Z" fill="#F8A557"/>
<path d="M26.1529 142.601L26.7857 144.649C26.8513 144.862 26.8507 145.058 26.7837 145.238C26.715 145.413 26.5906 145.595 26.4103 145.786L23.1294 149.631C23.0326 149.735 22.96 149.837 22.9114 149.938C22.8555 150.035 22.819 150.135 22.8019 150.238C22.7775 150.338 22.7742 150.446 22.792 150.563C22.808 150.675 22.8377 150.801 22.8809 150.94L23.2984 152.292L28.6371 150.643L29.3347 152.901L17.1965 156.65L16.499 154.392L21.5859 152.821L21.2333 151.679C21.1624 151.45 21.0618 151.263 20.9316 151.12C20.8014 150.976 20.6075 150.864 20.3499 150.784L15.5993 149.337C15.3857 149.28 15.1996 149.194 15.041 149.077C14.8824 148.961 14.7702 148.796 14.7045 148.584L14.1081 146.653L19.9959 148.448C20.2518 148.522 20.4782 148.63 20.6752 148.771C20.8721 148.913 21.0443 149.083 21.1918 149.283C21.1832 148.918 21.247 148.588 21.3832 148.295C21.5121 147.998 21.7227 147.688 22.0152 147.364L26.1529 142.601Z" fill="#F8A557"/>
<path d="M11.9934 133.779L23.6738 136.867C24.0809 136.978 24.4238 137.112 24.7025 137.269C24.9813 137.427 25.2113 137.611 25.3926 137.823C25.5729 138.028 25.7136 138.261 25.8148 138.523C25.9207 138.777 26.0014 139.057 26.057 139.363C26.1325 139.777 26.1502 140.087 26.1099 140.291C26.0696 140.494 25.9774 140.609 25.8334 140.636L24.3812 140.9L24.2585 140.226C24.2354 140.099 24.2003 139.972 24.1531 139.843C24.1059 139.715 24.0362 139.594 23.944 139.479C23.8507 139.359 23.7296 139.251 23.5808 139.153C23.432 139.055 23.2445 138.973 23.0181 138.907L21.9258 138.597L14.0739 145.206L13.6773 143.028C13.6406 142.826 13.6602 142.656 13.7362 142.517C13.8121 142.378 13.9176 142.255 14.0527 142.147L18.1916 138.884C18.421 138.705 18.6502 138.541 18.8791 138.392C19.1069 138.238 19.3432 138.096 19.5878 137.969C19.0419 137.913 18.5025 137.812 17.9697 137.665L13.003 136.381C12.8647 136.341 12.7293 136.267 12.5967 136.161C12.4641 136.054 12.38 135.902 12.3444 135.706L11.9934 133.779Z" fill="#F8A557"/>
<path d="M24.0819 119.487L24.2119 121.864L13.3426 122.458L13.532 125.923C15.1273 125.918 16.511 125.96 17.6831 126.049C18.8491 126.131 19.8472 126.256 20.6775 126.422C21.5016 126.582 22.1755 126.783 22.699 127.024C23.2222 127.259 23.6357 127.527 23.9395 127.827C24.2375 128.127 24.4491 128.456 24.5741 128.813C24.6934 129.17 24.7639 129.548 24.7856 129.945C24.8086 130.366 24.7874 130.676 24.7219 130.873C24.6565 131.07 24.5506 131.172 24.4044 131.18L22.9306 131.261L22.8937 130.585C22.8854 130.433 22.8595 130.282 22.8161 130.132C22.7724 129.976 22.6908 129.825 22.5714 129.679C22.4458 129.528 22.2708 129.385 22.0464 129.25C21.8217 129.11 21.5244 128.983 21.1544 128.868C20.7783 128.748 20.3209 128.644 19.7823 128.556C19.2434 128.462 18.5971 128.389 17.8434 128.336C17.0893 128.278 16.2191 128.24 15.2328 128.224C14.2402 128.202 13.1085 128.208 11.8374 128.242L11.3967 120.18L24.0819 119.487Z" fill="#F8A557"/>
<path d="M22.9464 112.043C22.9776 111.605 22.9567 111.236 22.884 110.938C22.8058 110.633 22.6885 110.384 22.5319 110.19C22.3753 109.997 22.1858 109.855 21.9633 109.762C21.7409 109.67 21.4982 109.615 21.2353 109.596C20.949 109.576 20.6863 109.595 20.4472 109.655C20.2081 109.714 20.0033 109.829 19.8327 109.999C19.6562 110.168 19.5138 110.396 19.4055 110.682C19.2971 110.968 19.2273 111.33 19.1962 111.768L19.0494 113.836L22.8002 114.103L22.9464 112.043ZM17.3559 111.637C17.4143 110.814 17.5549 110.116 17.7775 109.545C18.0005 108.967 18.2828 108.506 18.6244 108.16C18.9606 107.808 19.3482 107.56 19.7871 107.415C20.2202 107.269 20.6793 107.214 21.1642 107.248C21.7601 107.291 22.2931 107.434 22.7631 107.679C23.2335 107.918 23.6298 108.248 23.9522 108.671C24.2687 109.092 24.4999 109.599 24.6457 110.191C24.7921 110.777 24.8391 111.438 24.7868 112.174L24.4732 116.591L11.801 115.691L11.9683 113.333L17.209 113.706L17.3559 111.637Z" fill="#F8A557"/>
<path d="M16.911 94.0366L16.1861 97.798L26.7541 99.8348L26.3069 102.155L15.7388 100.119L15.0139 103.88L13.1074 103.513L15.0045 93.6692L16.911 94.0366Z" fill="#F8A557"/>
<path d="M18.9394 87.6648L22.2946 88.7393L23.6504 84.5055L25.3824 85.0601L24.0266 89.2939L27.4488 90.3898L29.169 85.0181L30.9679 85.5942L28.5243 93.225L16.4254 89.3506L18.869 81.7197L20.6596 82.2931L18.9394 87.6648Z" fill="#F8A557"/>
<path d="M26.5171 69.5219L24.9223 73.0047L34.7076 77.4857L33.7236 79.6344L23.9383 75.1535L22.3434 78.6363L20.5781 77.8278L24.7518 68.7135L26.5171 69.5219Z" fill="#F8A557"/>
<path d="M39.8417 57.4247C40.0979 57.0752 40.2788 56.7393 40.3842 56.4172C40.4849 56.0916 40.5173 55.7849 40.4814 55.4971C40.4442 55.2011 40.341 54.9258 40.1719 54.671C39.998 54.4129 39.767 54.1782 39.4789 53.9669C39.2049 53.7661 38.9257 53.6268 38.6414 53.549C38.357 53.4713 38.0746 53.4603 37.794 53.5161C37.5135 53.5719 37.2378 53.7002 36.9671 53.9012C36.6916 54.0986 36.424 54.3745 36.1642 54.7288L35.1201 56.153L38.7976 58.8489L39.8417 57.4247ZM34.6904 53.6483C35.1926 52.9634 35.7075 52.4294 36.2352 52.0464C36.7628 51.6635 37.2902 51.4146 37.8173 51.2999C38.3444 51.1852 38.8659 51.1971 39.3817 51.3356C39.9009 51.4694 40.3991 51.7111 40.8762 52.0609C41.3722 52.4245 41.7674 52.8413 42.0619 53.3114C42.3517 53.778 42.5241 54.2858 42.5793 54.8346C42.6345 55.3834 42.5612 55.9688 42.3595 56.5907C42.1612 57.2079 41.8179 57.8495 41.3296 58.5156L40.2855 59.9398L43.8921 62.5838L42.4948 64.4898L32.249 56.9785L34.6904 53.6483Z" fill="#F8A557"/>
<path d="M50.9698 47.0467L46.8274 45.2887C46.6385 45.2163 46.422 45.122 46.1777 45.0058C45.9335 44.8896 45.6743 44.7594 45.4002 44.6152C45.5663 44.8749 45.7176 45.1247 45.854 45.3647C45.9862 45.6006 46.0968 45.8124 46.186 46.0001L48.2087 49.9979L50.9698 47.0467ZM57.3238 47.2765L56.0753 48.6109C55.9353 48.7606 55.7849 48.8485 55.6241 48.8746C55.4591 48.8967 55.299 48.8792 55.1438 48.8222L52.6029 47.7444L49.0075 51.5874L50.2519 54.051C50.3183 54.1773 50.3461 54.3276 50.3353 54.502C50.3245 54.6764 50.2491 54.8384 50.1091 54.9881L48.8546 56.329L42.9868 44.0056L44.6374 42.2413L57.3238 47.2765Z" fill="#F8A557"/>
<path d="M63.3286 40.3715L57.5349 33.3971L54.8655 35.6147C55.6086 36.6192 56.2416 37.5325 56.7646 38.3545C57.292 39.1727 57.7288 39.914 58.075 40.5782C58.4212 41.2424 58.6865 41.8368 58.8709 42.3613C59.0553 42.8858 59.1761 43.3565 59.2332 43.7736L63.3286 40.3715ZM66.6738 37.5925L69.3349 40.7959C69.4659 40.9536 69.5166 41.1246 69.4871 41.3091C69.462 41.4898 69.3639 41.6512 69.1927 41.7934L68.0979 42.7029L66.1667 40.3781L58.9896 46.3402L60.4885 48.1446C60.6195 48.3023 60.6703 48.4734 60.6407 48.6578C60.6157 48.8385 60.5176 49 60.3464 49.1422L59.2516 50.0516L56.1582 46.3279L57.226 45.4409C57.296 45.2686 57.3301 45.0575 57.3282 44.8078C57.3309 44.5543 57.2785 44.2437 57.1711 43.8761C57.0637 43.5085 56.8896 43.0744 56.6489 42.5738C56.4127 42.0695 56.0904 41.4844 55.682 40.8186C55.2698 40.1483 54.7599 39.3878 54.1523 38.5372C53.5491 37.6828 52.8273 36.7177 51.9868 35.6417L58.1975 30.4824L65.1533 38.8557L66.6738 37.5925Z" fill="#F8A557"/>
<path d="M70.991 22.5088L77.7577 33.2608L75.7501 34.5243L71.5103 27.7876C71.3512 27.5347 71.1893 27.2664 71.0245 26.9826C70.8647 26.6956 70.7088 26.3819 70.5568 26.0416C70.6324 26.3816 70.6856 26.708 70.7163 27.0208C70.749 27.3255 70.7669 27.6014 70.7702 27.8485L70.6921 36.846C70.6943 36.9484 70.6865 37.0571 70.6689 37.172C70.6562 37.2838 70.6314 37.3928 70.5945 37.4991C70.5544 37.6004 70.5023 37.699 70.438 37.7948C70.3706 37.8857 70.2898 37.9607 70.1956 38.02L68.6936 38.9653L61.9268 28.2133L63.9345 26.9498L68.1743 33.6865C68.3334 33.9393 68.4944 34.2117 68.6574 34.5036C68.8221 34.7874 68.9805 35.0995 69.1324 35.4399C69.0569 35.0999 69.0012 34.7751 68.9655 34.4654C68.9347 34.1526 68.9202 33.8711 68.9219 33.6208L68.9925 24.6281C68.9903 24.5257 68.9956 24.4186 69.0083 24.3068C69.0259 24.1918 69.0548 24.0837 69.0948 23.9824C69.1317 23.8761 69.1814 23.7791 69.2438 23.6914C69.3081 23.5956 69.3898 23.5165 69.489 23.4541L70.991 22.5088Z" fill="#F8A557"/>
<path d="M88.3862 21.6316C88.7747 22.478 88.9939 23.3279 89.0441 24.1814C89.0971 25.0271 88.989 25.8307 88.7198 26.5922C88.4506 27.3538 88.0251 28.0485 87.4433 28.6764C86.859 29.299 86.1277 29.8118 85.2493 30.2149C84.3763 30.6156 83.5133 30.8344 82.6603 30.8715C81.8048 30.9032 80.998 30.774 80.2397 30.484C79.4868 30.1915 78.8044 29.7507 78.1925 29.1615C77.5781 28.567 77.0767 27.8466 76.6882 27.0001C76.2998 26.1537 76.0817 25.3065 76.0341 24.4583C75.9839 23.6049 76.0935 22.7974 76.3626 22.0359C76.6371 21.2719 77.0665 20.5786 77.6508 19.956C78.2327 19.3281 78.9601 18.8138 79.8331 18.4131C80.4187 18.1444 81.0014 17.9608 81.5813 17.8622C82.1587 17.7583 82.7205 17.7325 83.2665 17.7848C83.81 17.8318 84.334 17.9555 84.8384 18.1558C85.3456 18.3483 85.8192 18.6079 86.2591 18.9344C86.699 19.261 87.0974 19.6517 87.4543 20.1066C87.8166 20.559 88.1273 21.0673 88.3862 21.6316ZM86.1904 22.6393C85.8996 22.0059 85.5543 21.478 85.1543 21.0558C84.7518 20.6283 84.313 20.3109 83.8377 20.1037C83.3623 19.8965 82.8557 19.8036 82.3177 19.8249C81.785 19.8438 81.2366 19.9827 80.6723 20.2417C80.108 20.5007 79.6424 20.8271 79.2754 21.2211C78.9138 21.6126 78.6539 22.0574 78.4957 22.5553C78.3429 23.0508 78.2973 23.5904 78.3591 24.1743C78.4184 24.7529 78.5934 25.3589 78.8841 25.9924C79.1748 26.6259 79.5214 27.1564 79.9238 27.5839C80.3238 28.0061 80.7615 28.3208 81.2368 28.528C81.715 28.7275 82.2204 28.8177 82.7531 28.7988C83.2911 28.7775 83.8422 28.6374 84.4065 28.3784C84.9707 28.1194 85.4337 27.7942 85.7954 27.4027C86.1623 27.0087 86.4235 26.5666 86.5787 26.0765C86.7316 25.581 86.7783 25.044 86.719 24.4654C86.6573 23.8815 86.4811 23.2728 86.1904 22.6393Z" fill="#F8A557"/>
<path d="M97.4079 14.5576L93.7538 15.707L96.9833 25.9735L94.7289 26.6827L91.4994 16.4162L87.8453 17.5656L87.2627 15.7134L96.8253 12.7054L97.4079 14.5576Z" fill="#F8A557"/>
<path d="M103.978 13.3146L104.627 16.7774L108.997 15.9585L109.332 17.746L104.962 18.5649L105.624 22.0968L111.168 21.0578L111.516 22.9145L103.64 24.3903L101.3 11.9035L109.176 10.4277L109.522 12.2756L103.978 13.3146Z" fill="#F8A557"/>
<path d="M125.696 22.0051L123.347 22.1598C123.183 22.1705 123.049 22.1383 122.944 22.063C122.845 21.9873 122.763 21.8988 122.698 21.7975L119.441 17.1253C119.403 17.2745 119.356 17.4038 119.299 17.5132L116.78 22.187C116.717 22.291 116.641 22.3899 116.553 22.4837C116.471 22.5713 116.357 22.6199 116.211 22.6295L114.01 22.7744L117.789 15.9749L113.342 10.0867L115.692 9.93205C115.855 9.92128 115.974 9.93696 116.047 9.9791C116.126 10.015 116.2 10.0805 116.271 10.1757L119.461 14.6322C119.51 14.4822 119.571 14.3315 119.643 14.18L122.016 9.84149C122.073 9.72621 122.138 9.63977 122.211 9.58217C122.283 9.52456 122.378 9.49192 122.495 9.48422L124.748 9.33591L121.07 15.6621L125.696 22.0051Z" fill="#F8A557"/>
<path d="M138.659 10.3314L137.9 23.0129L135.532 22.8712L135.864 17.3286L129.909 16.9723L129.578 22.515L127.21 22.3733L127.968 9.69183L130.336 9.83349L130.01 15.2885L135.965 15.6447L136.291 10.1898L138.659 10.3314Z" fill="#F8A557"/>
<path d="M153.139 13.243L150.725 25.7156L148.396 25.2647L149.909 17.45C149.966 17.1567 150.031 16.8502 150.105 16.5304C150.184 16.2117 150.285 15.8762 150.407 15.524C150.23 15.8237 150.045 16.0983 149.854 16.3476C149.669 16.5922 149.494 16.8058 149.327 16.9883L143.118 23.5002C143.049 23.5764 142.969 23.6504 142.878 23.7222C142.792 23.7951 142.7 23.8577 142.6 23.91C142.501 23.9566 142.396 23.9928 142.284 24.0188C142.172 24.039 142.062 24.0385 141.953 24.0174L140.21 23.6801L142.625 11.2075L144.954 11.6583L143.441 19.4731C143.384 19.7664 143.315 20.0752 143.235 20.3997C143.161 20.7195 143.063 21.0555 142.941 21.4077C143.118 21.108 143.3 20.8329 143.486 20.5825C143.677 20.3332 143.859 20.1178 144.031 19.9364L150.232 13.4229C150.301 13.3467 150.378 13.2721 150.463 13.1992C150.555 13.1274 150.65 13.0683 150.748 13.0217C150.848 12.9694 150.95 12.9326 151.056 12.9113C151.168 12.8853 151.282 12.8834 151.397 12.9057L153.139 13.243Z" fill="#F8A557"/>
<path d="M163.225 30.0689L161.188 29.4012C160.977 29.3319 160.817 29.2179 160.709 29.0591C160.606 28.9022 160.529 28.6952 160.478 28.438L159.236 23.5377C159.208 23.3989 159.166 23.2806 159.112 23.1827C159.065 23.0811 159.005 22.9934 158.93 22.9197C158.863 22.8422 158.777 22.7769 158.671 22.7237C158.571 22.6724 158.451 22.6239 158.312 22.5783L156.968 22.1377L155.227 27.4475L152.982 26.7115L156.938 14.6392L159.184 15.3752L157.526 20.4346L158.661 20.8067C158.889 20.8815 159.1 20.9073 159.292 20.8841C159.485 20.8609 159.688 20.7673 159.902 20.6032L163.829 17.5634C163.999 17.4218 164.177 17.3199 164.364 17.2579C164.551 17.1958 164.75 17.1994 164.961 17.2687L166.882 17.8981L162.013 21.665C161.805 21.8309 161.586 21.9533 161.357 22.0323C161.128 22.1112 160.889 22.1532 160.641 22.1581C160.944 22.3622 161.175 22.6046 161.336 22.8853C161.504 23.1623 161.636 23.5136 161.73 23.9391L163.225 30.0689Z" fill="#F8A557"/>
<path d="M179.174 23.9339L173.738 35.4161L171.594 34.4009L175 27.2067C175.128 26.9368 175.267 26.656 175.418 26.3646C175.574 26.0757 175.755 25.7757 175.961 25.4648C175.715 25.7111 175.468 25.9312 175.221 26.1252C174.981 26.3163 174.758 26.4796 174.551 26.6151L166.919 31.3808C166.834 31.4376 166.738 31.4894 166.632 31.5363C166.53 31.5856 166.425 31.6232 166.316 31.6492C166.209 31.6698 166.098 31.6787 165.982 31.676C165.869 31.6679 165.763 31.6401 165.662 31.5924L164.058 30.833L169.495 19.3508L171.639 20.366L168.232 27.5602C168.104 27.8301 167.961 28.1122 167.802 28.4065C167.651 28.6979 167.473 28.9991 167.268 29.31C167.514 29.0637 167.758 28.8423 168 28.6459C168.247 28.4519 168.477 28.2885 168.689 28.1556L176.313 23.3861C176.399 23.3293 176.492 23.2762 176.593 23.2269C176.699 23.18 176.806 23.1463 176.913 23.1257C177.022 23.0998 177.131 23.0896 177.238 23.0951C177.354 23.0979 177.464 23.1243 177.57 23.1745L179.174 23.9339Z" fill="#F8A557"/>
<path d="M198.784 38.0134L191.021 48.0703L189.144 46.621L194.007 40.3197C194.19 40.0833 194.386 39.8388 194.595 39.5863C194.81 39.3374 195.05 39.083 195.318 38.8231C195.025 39.0111 194.736 39.1735 194.453 39.3102C194.179 39.4458 193.926 39.5577 193.695 39.6459L185.221 42.6725C185.126 42.7098 185.021 42.74 184.907 42.763C184.798 42.7896 184.687 42.8039 184.575 42.8059C184.466 42.8032 184.355 42.7882 184.243 42.7609C184.135 42.7289 184.036 42.6789 183.948 42.6109L182.543 41.5266L190.306 31.4697L192.183 32.9191L187.32 39.2203C187.137 39.4568 186.937 39.7018 186.719 39.9553C186.51 40.2078 186.271 40.464 186.004 40.7239C186.297 40.5358 186.583 40.3717 186.861 40.2314C187.144 40.0948 187.404 39.9841 187.639 39.8995L196.106 36.8675C196.201 36.8302 196.303 36.7982 196.413 36.7716C196.527 36.7486 196.638 36.7384 196.747 36.7411C196.86 36.7391 196.968 36.7523 197.072 36.7807C197.184 36.808 197.286 36.8575 197.379 36.9291L198.784 38.0134Z" fill="#F8A557"/>
<path d="M206.287 48.0311C206.984 48.0919 207.68 48.296 208.375 48.6433C209.074 48.9951 209.723 49.5236 210.322 50.2288C210.925 50.9385 211.352 51.69 211.604 52.4833C211.863 53.2773 211.952 54.0699 211.872 54.8611C211.794 55.6568 211.551 56.4286 211.141 57.1765C210.736 57.9206 210.169 58.6018 209.442 59.22C208.723 59.8306 207.967 60.2844 207.175 60.5815C206.382 60.8785 205.594 61.0098 204.811 60.9753C204.033 60.9453 203.276 60.7467 202.541 60.3795C201.806 60.0123 201.136 59.4716 200.529 58.7574C199.85 57.9585 199.393 57.1589 199.159 56.3587C198.929 55.5629 198.89 54.7619 199.043 53.9558L200.422 54.0179C200.558 54.0249 200.668 54.0774 200.752 54.1756C200.835 54.2738 200.876 54.4122 200.874 54.5907C200.865 54.8518 200.876 55.0958 200.908 55.3227C200.947 55.5503 201.008 55.7714 201.091 55.9858C201.177 56.2047 201.29 56.4238 201.43 56.6429C201.574 56.8665 201.75 57.1011 201.959 57.3466C202.273 57.717 202.632 58.0121 203.034 58.2317C203.439 58.4558 203.871 58.5927 204.328 58.6423C204.789 58.6964 205.265 58.6603 205.758 58.5341C206.258 58.4086 206.757 58.1811 207.253 57.8516L203.441 53.3658L204.781 52.228L208.575 56.6937C208.946 56.271 209.226 55.8367 209.416 55.3909C209.611 54.9413 209.716 54.4948 209.731 54.0514C209.746 53.6081 209.673 53.1741 209.513 52.7497C209.36 52.3259 209.123 51.9244 208.8 51.545C208.474 51.1611 208.165 50.8783 207.872 50.6966C207.579 50.5149 207.314 50.3791 207.076 50.2892C206.842 50.2036 206.637 50.1392 206.462 50.0959C206.287 50.0526 206.158 49.9818 206.074 49.8836C205.991 49.7854 205.945 49.6903 205.935 49.5981C205.93 49.5104 205.937 49.4237 205.957 49.338L206.287 48.0311Z" fill="#F8A557"/>
<path d="M211.244 73.8519L209.941 71.8588L219.054 65.904L217.155 62.999C215.777 63.8018 214.558 64.4583 213.499 64.9685C212.448 65.4803 211.522 65.8723 210.72 66.1443C209.926 66.4181 209.242 66.5816 208.669 66.6348C208.098 66.6929 207.606 66.6681 207.193 66.5603C206.784 66.4493 206.437 66.2707 206.15 66.0244C205.868 65.7748 205.618 65.4834 205.4 65.15C205.169 64.797 205.033 64.5187 204.991 64.3153C204.949 64.1118 204.989 63.97 205.112 63.8899L206.347 63.0825L206.717 63.6488C206.801 63.7763 206.899 63.8942 207.011 64.0024C207.127 64.1156 207.273 64.2054 207.45 64.272C207.634 64.3404 207.858 64.3765 208.119 64.3805C208.384 64.3895 208.705 64.351 209.083 64.2651C209.468 64.1809 209.916 64.0421 210.427 63.8486C210.94 63.66 211.536 63.3998 212.215 63.0682C212.897 62.7414 213.669 62.3383 214.532 61.8588C215.402 61.3811 216.379 60.8093 217.462 60.1434L221.879 66.9023L211.244 73.8519Z" fill="#F8A557"/>
<path d="M223.124 73.9471L219.957 75.4901L221.904 79.4866L220.269 80.2831L218.322 76.2866L215.092 77.8603L217.562 82.931L215.864 83.7583L212.355 76.555L223.776 70.9911L227.285 78.1944L225.594 79.0178L223.124 73.9471Z" fill="#F8A557"/>
<path d="M220.646 97.6229L219.944 95.5975C219.871 95.3872 219.865 95.191 219.926 95.0087C219.989 94.832 220.107 94.6453 220.28 94.4487L223.428 90.4931C223.521 90.3864 223.59 90.2818 223.635 90.1794C223.688 90.0806 223.721 89.9792 223.734 89.8754C223.755 89.7751 223.755 89.6667 223.733 89.5503C223.713 89.4394 223.679 89.3148 223.631 89.1764L223.168 87.84L217.889 89.6708L217.114 87.4379L229.117 83.2754L229.892 85.5083L224.861 87.2528L225.253 88.3817C225.332 88.6085 225.438 88.7916 225.573 88.9307C225.708 89.0699 225.906 89.1749 226.166 89.2459L230.964 90.53C231.179 90.5793 231.368 90.6594 231.53 90.7704C231.693 90.8815 231.811 91.0421 231.884 91.2524L232.546 93.1616L226.6 91.569C226.342 91.5036 226.112 91.4035 225.91 91.2689C225.708 91.1343 225.53 90.9697 225.376 90.7752C225.397 91.1399 225.345 91.4712 225.219 91.769C225.1 92.0706 224.9 92.3879 224.619 92.721L220.646 97.6229Z" fill="#F8A557"/>
<path d="M232.946 105.192L232.131 101.45L221.615 103.738L221.113 101.429L231.629 99.1403L230.814 95.3973L232.711 94.9844L234.843 104.78L232.946 105.192Z" fill="#F8A557"/>
<path d="M229.27 114.024C229.311 114.456 229.399 114.827 229.535 115.137C229.676 115.447 229.856 115.698 230.074 115.889C230.298 116.085 230.559 116.223 230.854 116.3C231.156 116.378 231.484 116.399 231.84 116.366C232.178 116.333 232.479 116.252 232.743 116.121C233.008 115.99 233.226 115.81 233.398 115.582C233.571 115.354 233.691 115.075 233.76 114.744C233.834 114.414 233.851 114.03 233.809 113.592L233.642 111.834L229.103 112.266L229.27 114.024ZM235.628 113.42C235.709 114.265 235.679 115.006 235.54 115.643C235.4 116.28 235.172 116.817 234.854 117.253C234.537 117.689 234.14 118.027 233.662 118.266C233.185 118.512 232.653 118.662 232.064 118.718C231.451 118.776 230.879 118.728 230.347 118.573C229.82 118.417 229.353 118.152 228.947 117.779C228.541 117.406 228.207 116.92 227.944 116.321C227.682 115.728 227.511 115.021 227.433 114.199L227.266 112.441L222.814 112.864L222.591 110.511L235.238 109.309L235.628 113.42Z" fill="#F8A557"/>
<path d="M229.221 134.616C228.29 134.588 227.431 134.406 226.644 134.071C225.863 133.743 225.192 133.288 224.629 132.709C224.067 132.129 223.634 131.439 223.33 130.638C223.033 129.838 222.899 128.955 222.928 127.989C222.958 127.029 223.146 126.158 223.492 125.378C223.844 124.598 224.319 123.933 224.916 123.382C225.513 122.838 226.211 122.423 227.011 122.137C227.817 121.851 228.685 121.723 229.616 121.751C230.547 121.78 231.402 121.961 232.183 122.296C232.97 122.631 233.644 123.088 234.207 123.668C234.769 124.254 235.199 124.946 235.496 125.747C235.8 126.547 235.937 127.427 235.908 128.388C235.888 129.031 235.793 129.635 235.623 130.198C235.46 130.762 235.233 131.276 234.943 131.742C234.659 132.208 234.315 132.622 233.912 132.985C233.514 133.353 233.07 133.662 232.582 133.911C232.094 134.16 231.567 134.343 231.001 134.46C230.435 134.583 229.841 134.635 229.221 134.616ZM229.295 132.201C229.991 132.223 230.618 132.148 231.174 131.978C231.736 131.808 232.215 131.556 232.612 131.222C233.009 130.889 233.318 130.476 233.538 129.985C233.758 129.499 233.878 128.946 233.897 128.326C233.916 127.705 233.83 127.143 233.641 126.639C233.451 126.141 233.168 125.71 232.793 125.347C232.417 124.99 231.954 124.709 231.403 124.505C230.859 124.3 230.238 124.188 229.542 124.166C228.845 124.145 228.216 124.219 227.654 124.389C227.098 124.56 226.621 124.812 226.224 125.145C225.833 125.485 225.527 125.898 225.307 126.383C225.087 126.874 224.967 127.43 224.948 128.051C224.929 128.671 225.014 129.231 225.204 129.729C225.394 130.233 225.674 130.663 226.044 131.02C226.419 131.378 226.88 131.658 227.424 131.863C227.974 132.067 228.598 132.18 229.295 132.201Z" fill="#F8A557"/>
<path d="M233.123 147.965L220.586 145.914L220.969 143.573L226.448 144.47L227.412 138.582L221.932 137.686L222.315 135.345L234.852 137.396L234.469 139.737L229.076 138.855L228.113 144.742L233.506 145.624L233.123 147.965Z" fill="#F8A557"/>
<path d="M228.746 162.072L216.586 158.395L217.272 156.125L224.892 158.429C225.178 158.515 225.476 158.611 225.786 158.717C226.095 158.829 226.419 158.964 226.757 159.121C226.477 158.914 226.222 158.702 225.994 158.487C225.769 158.278 225.575 158.081 225.41 157.897L219.567 151.054C219.499 150.979 219.433 150.891 219.371 150.793C219.307 150.7 219.255 150.602 219.213 150.497C219.176 150.395 219.151 150.286 219.137 150.172C219.128 150.059 219.14 149.949 219.172 149.843L219.686 148.144L231.846 151.821L231.16 154.092L223.54 151.788C223.254 151.701 222.954 151.601 222.64 151.488C222.329 151.382 222.005 151.25 221.667 151.093C221.947 151.3 222.202 151.508 222.432 151.719C222.661 151.935 222.856 152.138 223.019 152.328L228.865 159.162C228.933 159.238 229 159.322 229.063 159.415C229.125 159.513 229.175 159.614 229.211 159.716C229.253 159.821 229.279 159.927 229.289 160.034C229.304 160.148 229.294 160.261 229.26 160.374L228.746 162.072Z" fill="#F8A557"/>
<path d="M210.977 170.385L211.85 168.427C211.94 168.224 212.07 168.076 212.239 167.985C212.406 167.899 212.62 167.844 212.881 167.819L217.882 167.085C218.023 167.071 218.145 167.042 218.248 166.998C218.354 166.961 218.447 166.91 218.528 166.844C218.612 166.785 218.686 166.705 218.75 166.606C218.811 166.511 218.872 166.397 218.931 166.263L219.507 164.971L214.403 162.697L215.365 160.538L226.969 165.709L226.007 167.867L221.144 165.701L220.658 166.792C220.56 167.011 220.513 167.218 220.516 167.412C220.52 167.606 220.592 167.817 220.733 168.047L223.356 172.265C223.479 172.448 223.562 172.635 223.605 172.828C223.648 173.02 223.624 173.217 223.533 173.421L222.711 175.267L219.461 170.039C219.318 169.815 219.218 169.584 219.163 169.348C219.108 169.112 219.091 168.87 219.111 168.623C218.877 168.903 218.612 169.109 218.317 169.24C218.024 169.379 217.661 169.474 217.228 169.525L210.977 170.385Z" fill="#F8A557"/>
<path d="M215.45 186.878L204.584 180.296L205.813 178.267L212.621 182.391C212.876 182.545 213.141 182.713 213.416 182.893C213.687 183.078 213.967 183.288 214.255 183.525C214.035 183.254 213.842 182.986 213.674 182.721C213.508 182.463 213.369 182.224 213.255 182.005L209.295 173.925C209.247 173.835 209.205 173.734 209.169 173.623C209.131 173.518 209.104 173.409 209.089 173.298C209.08 173.189 209.082 173.078 209.097 172.963C209.116 172.852 209.155 172.748 209.213 172.653L210.132 171.135L220.998 177.717L219.769 179.746L212.961 175.622C212.706 175.468 212.44 175.296 212.163 175.108C211.889 174.928 211.607 174.72 211.319 174.484C211.539 174.754 211.734 175.019 211.905 175.28C212.072 175.546 212.212 175.791 212.322 176.016L216.287 184.088C216.335 184.178 216.378 184.276 216.417 184.382C216.453 184.493 216.475 184.602 216.485 184.711C216.499 184.822 216.499 184.931 216.482 185.038C216.467 185.152 216.43 185.259 216.369 185.36L215.45 186.878Z" fill="#F8A557"/>
<g filter="url(#filter3_d)">
<path fill-rule="evenodd" clip-rule="evenodd" d="M83.9793 47.6939C84.7868 47.6939 85.4414 48.3485 85.4414 49.1559V66.7004C85.4414 67.5079 84.7868 68.1625 83.9793 68.1625C83.1719 68.1625 82.5173 67.5079 82.5173 66.7004V49.1559C82.5173 48.3485 83.1719 47.6939 83.9793 47.6939Z" fill="#F8A557"/>
<path fill-rule="evenodd" clip-rule="evenodd" d="M96.553 55.8813C97.3605 55.8813 98.0151 56.5359 98.0151 57.3434V66.408C98.0151 67.2155 97.3605 67.8701 96.553 67.8701C95.7456 67.8701 95.091 67.2155 95.091 66.408V57.3434C95.091 56.5359 95.7456 55.8813 96.553 55.8813Z" fill="#F8A557"/>
<path fill-rule="evenodd" clip-rule="evenodd" d="M90.1198 55.8813C90.9273 55.8813 91.5819 56.5359 91.5819 57.3434V66.408C91.5819 67.2155 90.9273 67.8701 90.1198 67.8701C89.3124 67.8701 88.6578 67.2155 88.6578 66.408V57.3434C88.6578 56.5359 89.3124 55.8813 90.1198 55.8813Z" fill="#F8A557"/>
<path fill-rule="evenodd" clip-rule="evenodd" d="M77.8388 55.8813C78.6463 55.8813 79.3009 56.5359 79.3009 57.3434V66.408C79.3009 67.2155 78.6463 67.8701 77.8388 67.8701C77.0314 67.8701 76.3768 67.2155 76.3768 66.408V57.3434C76.3768 56.5359 77.0314 55.8813 77.8388 55.8813Z" fill="#F8A557"/>
<path fill-rule="evenodd" clip-rule="evenodd" d="M83.8221 48.1721C84.0425 48.4082 84.0298 48.7782 83.7936 48.9987L66.2491 65.3735C66.013 65.5939 65.6429 65.5812 65.4225 65.345C65.2022 65.1089 65.2149 64.7388 65.4511 64.5184L83.1022 47.9863C83.3383 47.7659 83.6017 47.9359 83.8221 48.1721Z" fill="#F8A557"/>
<path fill-rule="evenodd" clip-rule="evenodd" d="M96.4022 56.3667C96.6185 56.6066 96.5996 56.9764 96.3598 57.1927L84.8565 67.8701C84.6167 68.0865 83.7615 68.2093 83.5451 67.9695C83.3287 67.7297 83.3476 67.3599 83.5874 67.1435L95.6756 56.1738C95.9154 55.9574 96.1858 56.127 96.4022 56.3667Z" fill="#F8A557"/>
<path fill-rule="evenodd" clip-rule="evenodd" d="M89.9698 56.3673C90.1858 56.6073 90.1664 56.9771 89.9263 57.1932L78.716 67.5776C78.4759 67.7937 77.6201 67.9165 77.4041 67.6765C77.188 67.4364 77.2074 67.0666 77.4475 66.8505L89.2427 56.1737C89.4827 55.9576 89.7537 56.1272 89.9698 56.3673Z" fill="#F8A557"/>
<path fill-rule="evenodd" clip-rule="evenodd" d="M77.6676 56.3451C77.8959 56.5735 77.8959 56.9438 77.6676 57.1721L75.9131 58.9266C75.6848 59.155 75.3144 59.155 75.0861 58.9266C74.8577 58.6982 74.8577 58.3279 75.0861 58.0995L76.6692 56.4662C76.8976 56.2378 77.4392 56.1167 77.6676 56.3451Z" fill="#F8A557"/>
<path fill-rule="evenodd" clip-rule="evenodd" d="M99.9337 64.5806C100.135 64.8329 100.095 65.2009 99.8424 65.4027L97.4302 67.5776C97.1779 67.7794 96.298 67.9028 96.0963 67.6506C95.8945 67.3983 95.9354 67.0303 96.1876 66.8286L99.1117 64.4893C99.3639 64.2875 99.7319 64.3284 99.9337 64.5806Z" fill="#F8A557"/>
<path fill-rule="evenodd" clip-rule="evenodd" d="M93.5007 64.5806C93.7025 64.8329 93.6616 65.2009 93.4094 65.4027L90.9972 67.5776C90.7449 67.7794 89.865 67.9028 89.6633 67.6506C89.4615 67.3983 89.5024 67.0303 89.7546 66.8286L92.6787 64.4893C92.9309 64.2875 93.299 64.3284 93.5007 64.5806Z" fill="#F8A557"/>
<path d="M93.7908 49.3489C94.3167 50.1618 95.0528 52.2755 93.7908 54.2265M91.7004 49.3489C92.2263 50.1618 92.9624 52.2755 91.7004 54.2265M89.61 49.3489C90.1359 50.1618 90.872 52.2755 89.61 54.2265" stroke="#F8A557" stroke-width="0.3" stroke-linecap="round"/>
</g>
<g filter="url(#filter4_d)">
<path d="M107.939 187.01H97.8979L134.296 84.0918H123L126.765 75.3061H145.592L107.939 187.01Z" fill="#FAD3B2"/>
<path d="M127.161 75.9061H144.756L107.508 186.41H98.7466L134.862 84.2919L135.145 83.4918H134.296H123.91L127.161 75.9061Z" stroke="#F3A550" stroke-width="1.2"/>
</g>
<g filter="url(#filter5_d)">
<path d="M99.1529 159.398L102.918 150.612H71.5408C53.5472 150.612 47.6939 84.0918 77.8164 84.0918H94.1327L96.6429 75.3061H75.3062C36.3982 75.3061 35.1428 159.398 70.2856 159.398H99.1529Z" fill="#FAD3B2"/>
<path d="M75.3062 75.9061H95.8475L93.6801 83.4918H77.8164C70.0137 83.4918 64.5544 87.8202 61.071 94.198C57.6004 100.552 56.0616 108.977 56.0351 117.35C56.0085 125.728 57.4952 134.125 60.1408 140.45C61.4632 143.612 63.0879 146.286 64.9851 148.179C66.887 150.076 69.0906 151.212 71.5408 151.212H102.008L98.7573 158.798H70.2856C61.7871 158.798 55.449 153.73 51.3018 145.976C47.1484 138.21 45.237 127.81 45.6264 117.374C46.0158 106.939 48.703 96.5395 53.6709 88.7686C58.6298 81.012 65.8326 75.9061 75.3062 75.9061Z" stroke="#F3A550" stroke-width="1.2"/>
</g>
<g opacity="0.3">
<path d="M107.048 204.069H99.3038V208.879H103.297C104.974 208.901 106.283 209.331 107.224 210.17C108.166 211.008 108.636 212.148 108.636 213.589C108.636 215.038 108.162 216.193 107.213 217.053C106.264 217.913 104.97 218.358 103.33 218.388H97.1748V202.326H107.048V204.069ZM99.3038 210.622V216.656H103.176C104.227 216.656 105.044 216.376 105.625 215.818C106.213 215.259 106.507 214.508 106.507 213.567C106.507 212.663 106.224 211.949 105.658 211.427C105.099 210.905 104.301 210.637 103.264 210.622H99.3038Z" fill="white"/>
<path d="M121.465 204.069H113.722V218.388H111.593V202.326H121.465V204.069Z" fill="white"/>
<path d="M129.595 211.648L133.291 202.326H135.751L130.07 215.707C129.687 216.56 129.331 217.167 129 217.527C128.669 217.88 128.279 218.152 127.83 218.344C127.389 218.527 126.834 218.619 126.165 218.619C125.584 218.619 125.212 218.586 125.051 218.52L125.117 216.843L126.121 216.888C126.893 216.888 127.466 216.516 127.841 215.773L128.117 215.2L128.536 214.218L123.065 202.326H125.437L129.595 211.648Z" fill="white"/>
<path d="M148.415 202.326H150.533V218.388H148.415V206.011L140.505 218.388H138.376V202.326H140.505V214.703L148.415 202.326Z" fill="white"/>
<path d="M156.511 212.1V218.388H154.393V202.326H160.317C162.075 202.326 163.45 202.775 164.443 203.672C165.443 204.569 165.943 205.757 165.943 207.235C165.943 208.794 165.454 209.997 164.476 210.842C163.505 211.681 162.112 212.1 160.295 212.1H156.511ZM156.511 210.368H160.317C161.45 210.368 162.318 210.103 162.921 209.574C163.524 209.037 163.825 208.265 163.825 207.257C163.825 206.301 163.524 205.536 162.921 204.963C162.318 204.389 161.49 204.091 160.439 204.069H156.511V210.368Z" fill="white"/>
</g>
<defs>
<filter id="filter0_d" x="61.5" y="166.929" width="26.102" height="36.6429" filterUnits="userSpaceOnUse" color-interpolation-filters="sRGB">
<feFlood flood-opacity="0" result="BackgroundImageFix"/>
<feColorMatrix in="SourceAlpha" type="matrix" values="0 0 0 0 0 0 0 0 0 0 0 0 0 0 0 0 0 0 127 0"/>
<feOffset dx="1" dy="1.5"/>
<feColorMatrix type="matrix" values="0 0 0 0 0.325 0 0 0 0 0.161321 0 0 0 0 0.0352083 0 0 0 1 0"/>
<feBlend mode="normal" in2="BackgroundImageFix" result="effect1_dropShadow"/>
<feBlend mode="normal" in="SourceGraphic" in2="effect1_dropShadow" result="shape"/>
</filter>
<filter id="filter1_d" x="81.5816" y="48.949" width="123.088" height="113.204" filterUnits="userSpaceOnUse" color-interpolation-filters="sRGB">
<feFlood flood-opacity="0" result="BackgroundImageFix"/>
<feColorMatrix in="SourceAlpha" type="matrix" values="0 0 0 0 0 0 0 0 0 0 0 0 0 0 0 0 0 0 127 0"/>
<feOffset dx="1" dy="1.5"/>
<feColorMatrix type="matrix" values="0 0 0 0 0.325 0 0 0 0 0.161321 0 0 0 0 0.0352083 0 0 0 1 0"/>
<feBlend mode="normal" in2="BackgroundImageFix" result="effect1_dropShadow"/>
<feBlend mode="normal" in="SourceGraphic" in2="effect1_dropShadow" result="shape"/>
</filter>
<filter id="filter2_d" x="158.143" y="104.173" width="26.102" height="9.03061" filterUnits="userSpaceOnUse" color-interpolation-filters="sRGB">
<feFlood flood-opacity="0" result="BackgroundImageFix"/>
<feColorMatrix in="SourceAlpha" type="matrix" values="0 0 0 0 0 0 0 0 0 0 0 0 0 0 0 0 0 0 127 0"/>
<feOffset dx="1" dy="1.5"/>
<feColorMatrix type="matrix" values="0 0 0 0 0.325 0 0 0 0 0.161321 0 0 0 0 0.0352083 0 0 0 1 0"/>
<feBlend mode="normal" in2="BackgroundImageFix" result="effect1_dropShadow"/>
<feBlend mode="normal" in="SourceGraphic" in2="effect1_dropShadow" result="shape"/>
</filter>
<filter id="filter3_d" x="65.2653" y="47.6939" width="34.9966" height="20.7686" filterUnits="userSpaceOnUse" color-interpolation-filters="sRGB">
<feFlood flood-opacity="0" result="BackgroundImageFix"/>
<feColorMatrix in="SourceAlpha" type="matrix" values="0 0 0 0 0 0 0 0 0 0 0 0 0 0 0 0 0 0 127 0"/>
<feOffset dx="0.2" dy="0.3"/>
<feColorMatrix type="matrix" values="0 0 0 0 0.482353 0 0 0 0 0.243137 0 0 0 0 0.0588235 0 0 0 1 0"/>
<feBlend mode="normal" in2="BackgroundImageFix" result="effect1_dropShadow"/>
<feBlend mode="normal" in="SourceGraphic" in2="effect1_dropShadow" result="shape"/>
</filter>
<filter id="filter4_d" x="97.8979" y="75.3061" width="48.6939" height="113.204" filterUnits="userSpaceOnUse" color-interpolation-filters="sRGB">
<feFlood flood-opacity="0" result="BackgroundImageFix"/>
<feColorMatrix in="SourceAlpha" type="matrix" values="0 0 0 0 0 0 0 0 0 0 0 0 0 0 0 0 0 0 127 0"/>
<feOffset dx="1" dy="1.5"/>
<feColorMatrix type="matrix" values="0 0 0 0 0.325 0 0 0 0 0.161321 0 0 0 0 0.0352083 0 0 0 1 0"/>
<feBlend mode="normal" in2="BackgroundImageFix" result="effect1_dropShadow"/>
<feBlend mode="normal" in="SourceGraphic" in2="effect1_dropShadow" result="shape"/>
</filter>
<filter id="filter5_d" x="44.9769" y="75.3061" width="58.9414" height="85.5918" filterUnits="userSpaceOnUse" color-interpolation-filters="sRGB">
<feFlood flood-opacity="0" result="BackgroundImageFix"/>
<feColorMatrix in="SourceAlpha" type="matrix" values="0 0 0 0 0 0 0 0 0 0 0 0 0 0 0 0 0 0 127 0"/>
<feOffset dx="1" dy="1.5"/>
<feColorMatrix type="matrix" values="0 0 0 0 0.325 0 0 0 0 0.161321 0 0 0 0 0.0352083 0 0 0 1 0"/>
<feBlend mode="normal" in2="BackgroundImageFix" result="effect1_dropShadow"/>
<feBlend mode="normal" in="SourceGraphic" in2="effect1_dropShadow" result="shape"/>
</filter>
<linearGradient id="paint0_linear" x1="123" y1="0" x2="123" y2="246" gradientUnits="userSpaceOnUse">
<stop offset="0.171875" stop-color="#C4C4C4" stop-opacity="0"/>
<stop offset="0.526042" stop-color="#C4C4C4"/>
<stop offset="0.875" stop-color="#C4C4C4" stop-opacity="0"/>
</linearGradient>
</defs>
</svg>
